<svg width="14" height="14" fill="none" xmlns="http://www.w3.org/2000/svg"><path d="M1.75 7H7v.875H1.75V7zM.875 4.812H5.25v.875H.875v-.875z" fill="#00A046"/><path d="M12.075 6.973l-1.312-3.062a.437.437 0 00-.402-.265H9.048V2.77a.437.437 0 00-.437-.438h-7v.875h6.562v5.494A1.747 1.747 0 007.36 9.77H4.611a1.75 1.75 0 100 .875h2.75a1.741 1.741 0 003.375 0h.937a.438.438 0 00.438-.438V7.146a.435.435 0 00-.036-.173zm-9.152 4.11a.875.875 0 110-1.75.875.875 0 010 1.75zm6.125-6.562h1.024l.938 2.187H9.048V4.521zm0 6.562a.875.875 0 110-1.75.875.875 0 010 1.75zm2.188-1.312h-.5a1.748 1.748 0 00-1.688-1.313v-.875h2.188v2.188z" fill="#00A046"/></svg>