<svg width="50" height="50" fill="none" xmlns="http://www.w3.org/2000/svg"><path d="M31.25 20.313a7.813 7.813 0 0015.625 0c0-.243-.056-.482-.164-.699l-6.25-12.5a1.562 1.562 0 00-1.892-.784l-9.892 3.297A4.738 4.738 0 0026.563 8.1V3.125h-3.125V8.1a4.68 4.68 0 00-3.12 4.313l-9.874 3.292c-.393.13-.718.412-.903.783l-6.25 12.5a1.563 1.563 0 00-.166.7 7.813 7.813 0 0015.625 0c0-.243-.056-.482-.164-.699L13.14 18.1l8.182-2.728a4.733 4.733 0 002.114 1.526V43.75H9.376v3.125h31.25V43.75H26.562V16.9a4.68 4.68 0 003.12-4.312l6.296-2.1-4.562 9.125a1.562 1.562 0 00-.166.7zM10.937 34.374A4.681 4.681 0 016.54 31.25h8.797a4.681 4.681 0 01-4.399 3.125zm3.722-6.25H7.216l3.721-7.444 3.722 7.444zM25 14.062a1.563 1.563 0 110-3.125 1.563 1.563 0 010 3.126zM39.063 25a4.68 4.68 0 01-4.399-3.125h8.797A4.681 4.681 0 0139.063 25zm0-13.694l3.721 7.444h-7.443l3.721-7.444z" fill="#877B7B" fill-opacity=".7"/></svg>